<?xml version="1.0" standalone="no"?>
<!DOCTYPE svg PUBLIC "-//W3C//DTD SVG 20010904//EN"
 "http://www.w3.org/TR/2001/REC-SVG-20010904/DTD/svg10.dtd">
<svg version="1.0" xmlns="http://www.w3.org/2000/svg"
 width="1000.000000pt" height="135.000000pt" viewBox="0 0 1000.000000 250.000000"
 preserveAspectRatio="xMidYMid meet">

<g transform="translate(0.000000,250.000000) scale(0.100000,-0.100000)"
fill="#FFFFFF" stroke="none">
<path d="M9455 2410 c-115 -5 -286 -11 -380 -14 -93 -4 -222 -8 -285 -11 -107
-4 -517 -18 -895 -30 -88 -3 -277 -10 -420 -15 -143 -6 -465 -17 -715 -25
-514 -17 -688 -23 -875 -30 -164 -6 -676 -23 -905 -30 -96 -3 -240 -7 -320
-10 -80 -3 -206 -8 -280 -10 -74 -3 -180 -7 -235 -9 -55 -3 -194 -8 -310 -11
-115 -3 -239 -8 -275 -10 -36 -2 -184 -6 -330 -10 -146 -3 -290 -8 -320 -10
-30 -3 -199 -10 -375 -15 -176 -5 -369 -12 -430 -15 -60 -2 -200 -7 -310 -10
-204 -6 -367 -11 -580 -20 -66 -2 -194 -7 -285 -10 -91 -3 -300 -10 -465 -17
l-301 -11 1 -58 c0 -32 5 -62 10 -67 10 -10 364 -3 870 17 307 12 918 32 1095
35 69 2 240 8 380 14 140 6 413 16 605 22 389 12 679 22 770 25 33 2 161 6
285 9 124 3 335 10 470 16 135 6 388 15 562 19 174 5 321 11 325 14 4 3 127 8
273 11 146 3 324 9 395 11 72 3 188 8 259 10 71 3 230 8 355 10 124 3 237 7
251 10 14 3 196 10 405 16 209 5 418 12 465 14 47 2 186 7 310 10 124 3 266 8
315 11 50 3 169 7 265 9 516 11 896 31 917 47 8 7 7 16 -4 39 -12 24 -12 33
-2 45 31 38 -18 44 -286 34z m5 -60 c11 -7 3 -10 -30 -9 -34 0 -40 2 -25 9 27
12 37 12 55 0z m-705 -19 c0 -23 -22 -24 -28 -1 -4 16 -1 20 11 18 9 -2 17
-10 17 -17z m355 5 c0 -3 -4 -8 -10 -11 -5 -3 -10 -1 -10 4 0 6 5 11 10 11 6
0 10 -2 10 -4z m-1042 -29 c2 -10 -3 -17 -13 -17 -9 0 -13 5 -10 10 3 6 1 10
-5 10 -6 0 -8 5 -5 11 9 14 29 6 33 -14z m352 2 c0 -5 -17 -9 -37 -9 -37 1
-38 1 -14 14 25 14 51 11 51 -5z m1040 11 c0 -5 -5 -10 -11 -10 -5 0 -7 5 -4
10 3 6 8 10 11 10 2 0 4 -4 4 -10z m-1165 -10 c-3 -5 3 -10 14 -10 14 0 21 -6
21 -20 0 -14 -7 -20 -21 -20 -17 0 -19 3 -10 14 9 11 6 16 -19 24 -37 13 -39
22 -4 22 14 0 23 -4 19 -10z m-940 -28 c0 -6 -3 -12 -7 -12 -5 0 -8 3 -7 6 0
4 -5 11 -13 16 -9 7 -8 8 7 6 11 -2 20 -9 20 -16z m225 2 c0 -17 -22 -14 -28
4 -2 7 3 12 12 12 9 0 16 -7 16 -16z m130 6 c11 -7 3 -10 -30 -9 -34 0 -40 2
-25 9 27 12 37 12 55 0z m-425 -10 c-3 -5 -10 -10 -16 -10 -5 0 -9 5 -9 10 0
6 7 10 16 10 8 0 12 -4 9 -10z m1135 6 c0 -3 -4 -8 -10 -11 -5 -3 -10 -1 -10
4 0 6 5 11 10 11 6 0 10 -2 10 -4z m-1814 -17 c3 -6 1 -16 -5 -22 -9 -9 -14
-8 -21 3 -9 15 -4 30 10 30 5 0 12 -5 16 -11z m224 -9 c0 -5 9 -10 20 -10 13
0 20 -7 20 -20 0 -14 -7 -20 -21 -20 -17 0 -19 3 -10 14 9 11 6 16 -19 24 -35
13 -39 22 -10 22 11 0 20 -4 20 -10z m130 0 c0 -5 -19 -10 -42 -9 -33 0 -38 2
-23 9 28 12 65 12 65 0z m660 -5 c0 -9 -9 -15 -22 -14 -13 0 -17 3 -10 6 6 2
10 9 6 14 -3 5 2 9 10 9 9 0 16 -7 16 -15z m627 9 c-3 -3 -12 -4 -19 -1 -8 3
-5 6 6 6 11 1 17 -2 13 -5z m-1715 -16 c-9 -9 -15 -9 -24 0 -9 9 -7 12 12 12
19 0 21 -3 12 -12z m-702 -18 c0 -11 -4 -20 -9 -20 -5 0 -11 9 -14 20 -3 13 0
20 9 20 8 0 14 -9 14 -20z m226 5 c4 -8 14 -15 23 -15 24 0 22 -27 -1 -34 -14
-3 -18 0 -14 10 4 9 -3 18 -20 24 -14 6 -22 14 -19 20 9 15 25 12 31 -5z m124
5 c12 -8 12 -10 -2 -15 -9 -4 -29 -5 -45 -3 l-28 4 25 11 c31 15 32 15 50 3z
m890 6 c0 -3 -4 -8 -10 -11 -5 -3 -10 -1 -10 4 0 6 5 11 10 11 6 0 10 -2 10
-4z m473 -3 c-7 -2 -19 -2 -25 0 -7 3 -2 5 12 5 14 0 19 -2 13 -5z m-1783 -13
c0 -5 -7 -10 -16 -10 -8 0 -12 5 -9 10 3 6 10 10 16 10 5 0 9 -4 9 -10z m1200
6 c0 -3 -4 -8 -10 -11 -5 -3 -10 -1 -10 4 0 6 5 11 10 11 6 0 10 -2 10 -4z
m-1900 -31 c0 -8 -4 -15 -10 -15 -5 0 -10 7 -10 15 0 8 5 15 10 15 6 0 10 -7
10 -15z m230 -1 c0 -9 -7 -14 -17 -12 -25 5 -28 28 -4 28 12 0 21 -6 21 -16z
m120 6 c11 -7 3 -10 -30 -9 -34 0 -40 2 -25 9 27 12 37 12 55 0z m1377 4 c-3
-3 -12 -4 -19 -1 -8 3 -5 6 6 6 11 1 17 -2 13 -5z m-600 -10 c-3 -3 -12 -4
-19 -1 -8 3 -5 6 6 6 11 1 17 -2 13 -5z m-1428 -13 c9 -6 2 -10 -23 -13 -35
-4 -49 5 -23 15 19 8 31 8 46 -2z m1258 3 c-3 -3 -12 -4 -19 -1 -8 3 -5 6 6 6
11 1 17 -2 13 -5z m-1962 -23 c0 -23 -22 -24 -28 -1 -4 16 -1 20 11 18 9 -2
17 -10 17 -17z m1269 4 c4 -11 -2 -15 -20 -15 -21 0 -23 2 -12 15 17 18 24 19
32 0z m86 5 c0 -5 -5 -10 -11 -10 -5 0 -7 5 -4 10 3 6 8 10 11 10 2 0 4 -4 4
-10z m-1000 -10 c0 -5 -4 -10 -10 -10 -5 0 -10 5 -10 10 0 6 5 10 10 10 6 0
10 -4 10 -10z m-1042 -23 c2 -10 -3 -17 -13 -17 -9 0 -13 5 -10 10 3 6 1 10
-5 10 -6 0 -8 5 -5 11 9 14 29 6 33 -14z m1875 16 c-7 -2 -19 -2 -25 0 -7 3
-2 5 12 5 14 0 19 -2 13 -5z m-1648 -13 c-3 -5 3 -10 14 -10 14 0 21 -6 21
-20 0 -14 -7 -20 -21 -20 -17 0 -19 3 -10 14 9 11 6 16 -19 24 -37 13 -39 22
-4 22 14 0 23 -4 19 -10z m130 0 c4 -6 -11 -10 -37 -10 -31 0 -39 3 -28 10 20
13 57 13 65 0z m1042 4 c-3 -3 -12 -4 -19 -1 -8 3 -5 6 6 6 11 1 17 -2 13 -5z
m-1467 -8 c0 -3 -4 -8 -10 -11 -5 -3 -10 -1 -10 4 0 6 5 11 10 11 6 0 10 -2
10 -4z m-645 -25 c0 -8 -6 -16 -14 -19 -10 -3 -12 0 -8 11 3 9 1 18 -6 21 -7
3 -3 5 8 3 11 -1 20 -9 20 -16z m226 4 c-1 -15 -24 -12 -29 3 -3 9 2 13 12 10
10 -1 17 -7 17 -13z m124 6 c16 -7 11 -9 -22 -12 -43 -4 -59 5 -25 14 24 7 25
6 47 -2z m825 -1 c0 -5 -5 -10 -11 -10 -5 0 -7 5 -4 10 3 6 8 10 11 10 2 0 4
-4 4 -10z m-1240 -10 c0 -5 -7 -10 -15 -10 -8 0 -15 5 -15 10 0 6 7 10 15 10
8 0 15 -4 15 -10z m1130 0 c0 -5 -4 -10 -10 -10 -5 0 -10 5 -10 10 0 6 5 10
10 10 6 0 10 -4 10 -10z m-1816 -31 c-3 -5 -10 -9 -15 -9 -6 0 -7 5 -4 10 3 6
1 10 -5 10 -6 0 -8 5 -5 10 5 8 11 7 21 -1 7 -6 11 -15 8 -20z m232 12 c-3 -5
3 -11 14 -14 26 -7 26 -37 0 -37 -13 0 -18 5 -14 15 4 10 -3 18 -20 25 -33 12
-33 20 0 20 14 0 23 -4 20 -9z m124 -1 c0 -5 -19 -10 -42 -9 -33 0 -38 2 -23
9 28 12 65 12 65 0z m660 -5 c0 -9 -9 -15 -22 -14 -13 0 -17 3 -10 6 6 2 10 9
6 14 -3 5 2 9 10 9 9 0 16 -7 16 -15z m633 8 c-7 -2 -19 -2 -25 0 -7 3 -2 5
12 5 14 0 19 -2 13 -5z m-1721 -15 c-9 -9 -15 -9 -24 0 -9 9 -7 12 12 12 19 0
21 -3 12 -12z m-702 -18 c0 -11 -4 -20 -10 -20 -5 0 -10 2 -10 4 0 2 -3 11 -6
20 -4 11 -1 16 10 16 9 0 16 -8 16 -20z m226 5 c4 -8 14 -15 23 -15 24 0 22
-27 -1 -34 -14 -3 -18 0 -14 10 4 9 -3 18 -20 24 -14 6 -22 14 -19 20 9 15 25
12 31 -5z m118 9 c30 -12 16 -24 -26 -24 -42 1 -43 1 -18 15 30 17 25 16 44 9z
m1369 -1 c-7 -2 -19 -2 -25 0 -7 3 -2 5 12 5 14 0 19 -2 13 -5z m-583 -7 c0
-3 -4 -8 -10 -11 -5 -3 -10 -1 -10 4 0 6 5 11 10 11 6 0 10 -2 10 -4z m-1190
-10 c0 -9 -30 -14 -35 -6 -4 6 3 10 14 10 12 0 21 -2 21 -4z m-712 -23 c-2
-10 -7 -18 -12 -18 -5 0 -10 8 -12 18 -1 9 4 17 13 17 8 0 13 -7 11 -17z m232
2 c0 -8 6 -15 14 -15 8 0 16 -7 20 -15 4 -11 -2 -15 -22 -15 -20 0 -23 3 -12
10 11 7 9 11 -13 19 -32 12 -36 31 -7 31 11 0 20 -7 20 -15z m120 5 c11 -7 3
-10 -30 -9 -34 0 -40 2 -25 9 27 12 37 12 55 0z m903 3 c-7 -2 -19 -2 -25 0
-7 3 -2 5 12 5 14 0 19 -2 13 -5z m474 1 c-3 -3 -12 -4 -19 -1 -8 3 -5 6 6 6
11 1 17 -2 13 -5z m-1797 -14 c0 -5 -7 -10 -15 -10 -8 0 -15 5 -15 10 0 6 7
10 15 10 8 0 15 -4 15 -10z m1030 -10 c0 -5 -4 -10 -10 -10 -5 0 -10 5 -10 10
0 6 5 10 10 10 6 0 10 -4 10 -10z m-773 -26 c-3 -3 -12 -4 -19 -1 -8 3 -5 6 6
6 11 1 17 -2 13 -5z"/>
<path d="M9400 2131 c-50 -16 -87 -40 -128 -85 -37 -40 -45 -56 -56 -117 -2
-8 1 -98 5 -200 5 -101 13 -327 18 -501 11 -356 21 -435 58 -479 31 -37 106
-75 173 -90 61 -13 173 2 229 31 51 26 99 82 107 127 4 20 3 116 -1 212 -5 97
-8 212 -8 256 0 44 -3 154 -8 245 -5 91 -11 219 -15 285 -7 150 -16 187 -59
233 -54 60 -116 86 -210 89 -44 1 -91 -1 -105 -6z m115 -61 c3 -5 1 -10 -4
-10 -6 0 -11 5 -11 10 0 6 2 10 4 10 3 0 8 -4 11 -10z m-85 -32 c0 -5 -4 -7
-9 -3 -5 3 -11 -3 -13 -12 -3 -13 -5 -11 -9 8 -5 22 -3 25 13 21 10 -2 18 -9
18 -14z m139 -23 c0 -5 -4 -3 -9 5 -5 8 -9 22 -9 30 0 16 17 -16 18 -35z m31
25 c0 -5 -2 -10 -4 -10 -3 0 -8 5 -11 10 -3 6 -1 10 4 10 6 0 11 -4 11 -10z
m-110 -10 c0 -5 -2 -10 -4 -10 -3 0 -8 5 -11 10 -3 6 -1 10 4 10 6 0 11 -4 11
-10z m-178 -62 c-6 -6 -15 -8 -19 -4 -4 4 -1 11 7 16 19 12 27 3 12 -12z m83
3 c3 -5 1 -12 -5 -16 -5 -3 -10 1 -10 9 0 18 6 21 15 7z m299 -6 c-4 -8 -8
-15 -10 -15 -2 0 -4 7 -4 15 0 8 4 15 10 15 5 0 7 -7 4 -15z m-44 -17 c0 -6
-6 -5 -15 2 -8 7 -15 14 -15 16 0 2 7 1 15 -2 8 -4 15 -11 15 -16z m-122 5
c13 -3 28 -17 33 -30 5 -13 11 -110 15 -216 3 -106 10 -228 15 -272 5 -44 12
-186 15 -315 7 -267 7 -266 -67 -276 -77 -10 -85 5 -94 172 -12 218 -31 877
-27 897 5 19 47 46 72 46 8 1 25 -2 38 -6z m-188 -27 c0 -11 -19 -15 -25 -6
-3 5 1 10 9 10 9 0 16 -2 16 -4z m381 -81 c8 4 7 0 -3 -10 -21 -23 -57 -13
-38 11 10 11 15 12 20 3 5 -6 14 -8 21 -4z m-363 -20 c-6 -14 -13 -24 -14 -22
-6 6 9 47 17 47 5 0 3 -11 -3 -25z m302 5 c0 -5 -4 -10 -9 -10 -6 0 -13 5 -16
10 -3 6 1 10 9 10 9 0 16 -4 16 -10z m64 -66 c4 -9 4 -19 2 -21 -8 -8 -26 8
-26 23 0 19 16 18 24 -2z m-29 -34 c-3 -5 -11 -10 -16 -10 -6 0 -7 5 -4 10 3
6 11 10 16 10 6 0 7 -4 4 -10z m-25 -60 c0 -5 -4 -10 -10 -10 -5 0 -10 5 -10
10 0 6 5 10 10 10 6 0 10 -4 10 -10z m40 -55 c7 -9 8 -15 2 -15 -5 0 -12 7
-16 15 -3 8 -4 15 -2 15 2 0 9 -7 16 -15z m-10 -142 c0 -15 2 -16 10 -3 13 21
12 6 -2 -25 -12 -26 -28 -34 -28 -12 0 6 -3 22 -6 35 -5 16 -2 22 10 22 9 0
16 -8 16 -17z m-373 -68 c0 -8 -6 -16 -14 -19 -7 -3 -13 1 -13 8 0 8 6 17 13
19 6 3 12 6 13 6 0 1 1 -6 1 -14z m403 -71 c0 -2 -7 -4 -15 -4 -8 0 -15 4 -15
10 0 5 7 7 15 4 8 -4 15 -8 15 -10z m-370 -154 c0 -5 -5 -10 -11 -10 -5 0 -7
5 -4 10 3 6 8 10 11 10 2 0 4 -4 4 -10z m372 -101 c-8 -20 -9 -20 -16 -4 -3
10 -4 27 0 38 6 17 8 18 15 5 5 -9 5 -26 1 -39z"/>
<path d="M8648 2102 c-60 -2 -100 -7 -106 -15 -6 -8 -5 -77 4 -192 7 -99 16
-283 19 -410 3 -126 10 -261 15 -300 5 -38 12 -172 16 -296 3 -125 10 -232 14
-239 6 -10 50 -10 201 -3 215 11 228 15 294 83 l40 41 -1 137 c-4 362 -33 987
-50 1069 -7 37 -60 89 -113 112 -51 22 -47 22 -333 13z m254 -64 c-17 -17 -15
-28 6 -28 12 0 13 3 5 8 -9 6 -7 11 7 19 16 11 19 9 25 -15 5 -24 11 -28 40
-29 19 -1 35 3 35 8 0 5 -7 9 -16 9 -14 0 -14 3 -3 16 11 14 14 13 26 -11 8
-14 18 -23 23 -20 6 4 10 2 10 -4 0 -5 -4 -13 -10 -16 -16 -10 -12 -23 8 -21
10 0 16 -5 13 -14 -2 -8 -4 -20 -5 -27 -1 -7 -5 -15 -8 -18 -8 -8 3 -55 12
-55 5 0 8 -13 8 -30 -1 -16 -5 -30 -10 -30 -5 0 -7 -9 -3 -19 3 -11 1 -22 -5
-26 -5 -3 -10 1 -10 9 0 20 -19 20 -48 0 -13 -9 -26 -13 -30 -9 -4 3 1 11 11
16 27 16 20 29 -12 23 -32 -7 -45 4 -30 26 7 11 11 12 17 3 13 -21 74 0 65 23
-3 8 3 24 12 34 10 11 13 20 7 20 -6 0 -18 3 -27 7 -15 5 -16 1 -10 -28 7 -34
7 -34 -14 -15 -11 10 -18 22 -16 27 3 4 -13 6 -35 4 -37 -3 -39 -2 -29 16 5
11 14 17 19 14 4 -3 18 -1 30 3 20 8 20 9 -11 36 -18 16 -30 22 -26 14 3 -9
-1 -24 -8 -35 -13 -17 -14 -17 -15 0 0 10 -8 17 -20 17 -11 0 -20 7 -20 15 0
9 6 15 13 13 16 -3 57 11 57 21 0 8 -42 7 -57 -2 -6 -4 -18 -4 -26 -1 -10 3
-18 -2 -22 -15 -3 -12 -13 -21 -22 -21 -9 0 -13 6 -10 14 4 9 1 13 -7 10 -7
-3 -21 5 -32 17 -14 16 -16 23 -6 26 7 3 18 11 26 18 7 8 17 10 22 5 5 -4 20
-11 34 -14 l25 -7 -25 16 c-25 16 -25 16 18 10 35 -4 42 -2 42 12 0 13 3 14
12 5 9 -9 9 -15 0 -24z m-236 -45 c-7 -7 -26 7 -26 19 0 6 6 6 15 -2 9 -7 13
-15 11 -17z m68 -8 c11 -9 14 -15 7 -15 -7 0 -19 7 -27 15 -20 19 -5 19 20 0z
m-114 -16 c0 -6 -4 -7 -10 -4 -5 3 -10 11 -10 16 0 6 5 7 10 4 6 -3 10 -11 10
-16z m230 -25 c0 -8 -5 -12 -10 -9 -6 4 -8 11 -5 16 9 14 15 11 15 -7z m-55
-14 c3 -5 -1 -10 -10 -10 -9 0 -13 5 -10 10 3 6 8 10 10 10 2 0 7 -4 10 -10z
m-115 -30 c9 -16 8 -18 -5 -14 -8 4 -15 12 -15 20 0 20 7 17 20 -6z m189 -23
c28 -30 37 -90 52 -332 21 -354 27 -559 17 -607 -12 -59 -45 -88 -99 -88 -27
0 -39 5 -43 18 -3 9 -11 159 -17 332 -7 173 -13 335 -14 360 -5 117 -6 201 -6
268 l1 72 43 0 c33 0 49 -6 66 -23z m-221 0 c-1 -2 3 -11 11 -21 8 -9 11 -20
7 -23 -4 -4 -11 -1 -16 7 -10 16 -14 57 -4 48 3 -4 4 -8 2 -11z m342 -58 c0
-5 -4 -9 -10 -9 -5 0 -10 7 -10 16 0 8 5 12 10 9 6 -3 10 -10 10 -16z m-328
-14 c0 -5 -5 -11 -11 -13 -6 -2 -11 4 -11 13 0 9 5 15 11 13 6 -2 11 -8 11
-13z m48 -15 c0 -5 -7 -10 -16 -10 -8 0 -12 5 -9 10 3 6 10 10 16 10 5 0 9 -4
9 -10z m-33 -27 c3 -10 13 -26 21 -36 8 -9 12 -20 8 -25 -4 -4 -15 2 -25 14
-9 11 -22 19 -29 16 -6 -2 -12 1 -12 6 0 6 -3 17 -6 26 -4 12 0 16 15 16 12 0
24 -8 28 -17z m43 -7 c0 -11 -19 -15 -25 -6 -3 5 1 10 9 10 9 0 16 -2 16 -4z
m349 -58 c10 3 7 -5 -7 -23 -27 -33 -28 -47 -4 -38 16 6 16 5 0 -13 -14 -16
-15 -23 -6 -32 9 -9 8 -12 -6 -12 -16 0 -16 -2 -5 -16 10 -13 10 -17 -2 -25
-10 -6 -15 -3 -17 11 -2 11 -8 18 -13 15 -5 -4 -9 3 -9 14 0 11 5 23 10 26 6
4 8 11 4 16 -3 5 0 16 6 24 10 12 9 15 -4 15 -9 0 -16 5 -16 10 0 6 -7 10 -15
10 -8 0 -15 5 -15 10 0 6 5 10 10 10 6 0 10 7 10 15 0 25 18 17 28 -12 l10
-28 2 35 2 35 11 -26 c7 -15 18 -24 26 -21z m-419 16 c0 -3 -5 -14 -10 -25
-16 -28 -30 -23 -17 6 11 22 27 34 27 19z m20 -14 c0 -5 -5 -10 -11 -10 -5 0
-7 5 -4 10 3 6 8 10 11 10 2 0 4 -4 4 -10z m-20 -40 c0 -5 -5 -10 -11 -10 -5
0 -7 5 -4 10 3 6 8 10 11 10 2 0 4 -4 4 -10z m420 -138 c0 -5 -7 -9 -15 -9 -8
0 -15 4 -15 9 0 4 7 8 15 8 8 0 15 -4 15 -8z m0 -182 c0 -5 -4 -10 -10 -10 -5
0 -10 5 -10 10 0 6 5 10 10 10 6 0 10 -4 10 -10z m-360 -80 c0 -5 -4 -10 -10
-10 -5 0 -10 5 -10 10 0 6 5 10 10 10 6 0 10 -4 10 -10z m390 -20 c0 -5 -5
-10 -11 -10 -5 0 -7 5 -4 10 3 6 8 10 11 10 2 0 4 -4 4 -10z m-367 -304 c4
-10 1 -13 -8 -9 -8 3 -12 9 -9 14 7 12 11 11 17 -5z m13 -53 c-6 -7 -65 10
-61 17 3 5 18 3 35 -3 16 -6 28 -12 26 -14z m34 7 c0 -5 -5 -10 -11 -10 -5 0
-7 5 -4 10 3 6 8 10 11 10 2 0 4 -4 4 -10z m-55 -31 c4 -6 13 -8 21 -5 8 3 13
2 13 -2 -4 -23 2 -52 10 -48 5 3 14 -1 20 -8 8 -10 9 -16 1 -21 -20 -12 -10
-23 22 -21 25 1 34 7 39 26 6 23 7 24 14 6 6 -13 4 -21 -3 -24 -16 -5 -15 -29
1 -35 6 -2 9 -8 5 -12 -4 -4 -15 -2 -25 6 -15 12 -16 12 -10 -5 6 -16 4 -18
-20 -12 -16 4 -37 8 -48 10 -30 5 -31 6 -17 15 11 7 11 9 -2 14 -9 4 -16 3
-16 -2 0 -5 -15 -8 -32 -6 -29 2 -33 6 -36 35 -3 26 0 32 12 27 21 -8 21 12 0
28 -15 10 -15 13 1 28 19 19 41 22 50 6z m231 -55 c-3 -9 -6 -20 -6 -25 0 -6
-4 -8 -9 -5 -12 8 -2 46 11 46 6 0 7 -7 4 -16z m-126 -14 c9 -16 8 -20 -6 -20
-10 0 -14 3 -11 7 4 3 2 12 -4 20 -8 9 -8 13 -1 13 6 0 16 -9 22 -20z m75 0
c3 -5 1 -10 -4 -10 -6 0 -11 5 -11 10 0 6 2 10 4 10 3 0 8 -4 11 -10z m15 -32
c0 -4 -4 -8 -9 -8 -6 0 -12 4 -15 8 -3 5 1 9 9 9 8 0 15 -4 15 -9z m30 -8 c0
-5 -5 -10 -11 -10 -5 0 -7 5 -4 10 3 6 8 10 11 10 2 0 4 -4 4 -10z"/>
<path d="M8784 2005 c22 -17 36 -19 36 -6 0 10 -24 21 -43 21 -7 0 -3 -7 7
-15z"/>
<path d="M8967 1973 c-4 -3 -7 -11 -7 -17 0 -6 5 -5 12 2 6 6 9 14 7 17 -3 3
-9 2 -12 -2z"/>
<path d="M9000 1957 c0 -19 16 -31 24 -18 3 5 -1 14 -9 21 -12 10 -15 10 -15
-3z"/>
<path d="M8675 769 c-10 -15 3 -25 16 -12 7 7 7 13 1 17 -6 3 -14 1 -17 -5z"/>
<path d="M8720 771 c0 -5 12 -8 26 -8 18 0 22 2 13 8 -18 11 -39 11 -39 0z"/>
<path d="M8037 2072 c-5 -7 -16 -72 -52 -297 -8 -55 -15 -115 -15 -133 0 -18
-5 -42 -10 -52 -6 -10 -17 -79 -25 -152 -24 -205 -41 -327 -47 -333 -3 -3 -27
-8 -54 -12 -27 -3 -50 -6 -51 -7 -9 -7 42 -178 53 -182 8 -2 20 -6 27 -8 12
-3 12 -22 1 -108 -7 -58 -16 -121 -19 -142 l-7 -37 93 6 c52 3 97 9 102 14 7
7 18 80 33 214 4 32 11 60 15 63 14 9 187 15 192 7 3 -4 17 -64 32 -133 16
-69 32 -130 37 -136 9 -13 177 -7 191 6 4 4 -5 63 -22 131 -16 68 -35 158 -41
199 -27 175 -100 540 -145 730 -13 52 -26 124 -30 160 -4 36 -17 97 -29 135
l-22 70 -101 3 c-56 1 -104 -1 -106 -6z m83 -289 c0 -5 -5 -15 -10 -23 -8 -12
-10 -11 -10 8 0 12 5 22 10 22 6 0 10 -3 10 -7z m-34 -140 c-10 -10 -19 5 -10
18 6 11 8 11 12 0 2 -7 1 -15 -2 -18z m98 -180 c9 -82 24 -187 33 -236 8 -48
13 -94 9 -102 -4 -11 -22 -15 -72 -15 l-67 0 6 58 c3 31 13 109 22 172 9 63
18 140 21 170 11 147 27 131 48 -47z m196 -343 c0 -5 -5 -10 -11 -10 -5 0 -7
5 -4 10 3 6 8 10 11 10 2 0 4 -4 4 -10z m-325 -40 c-3 -5 -11 -10 -16 -10 -6
0 -7 5 -4 10 3 6 11 10 16 10 6 0 7 -4 4 -10z m355 6 c0 -3 -4 -8 -10 -11 -5
-3 -10 -1 -10 4 0 6 5 11 10 11 6 0 10 -2 10 -4z m-505 -36 c3 -5 2 -10 -4
-10 -5 0 -13 5 -16 10 -3 6 -2 10 4 10 5 0 13 -4 16 -10z m450 -20 c3 -5 -1
-10 -10 -10 -9 0 -13 5 -10 10 3 6 8 10 10 10 2 0 7 -4 10 -10z m40 -260 c3
-5 -1 -10 -9 -10 -9 0 -16 5 -16 10 0 6 4 10 9 10 6 0 13 -4 16 -10z"/>
<path d="M7168 2045 c-3 -4 -92 -7 -198 -7 -105 -1 -193 -4 -194 -7 -2 -3 0
-46 4 -96 5 -49 11 -179 14 -287 5 -185 4 -198 -12 -198 -10 0 -27 -6 -37 -14
-18 -13 -18 -16 0 -100 15 -72 23 -89 40 -96 24 -9 27 -46 41 -480 3 -101 9
-167 16 -171 14 -9 272 -4 356 6 l62 8 0 104 0 104 -107 -3 c-128 -4 -116 -21
-127 197 -8 158 -8 223 0 237 3 4 27 8 53 8 27 0 63 3 80 6 l32 7 -3 96 -3 96
-82 -4 c-99 -4 -100 -2 -101 119 -1 47 -4 127 -8 178 -3 50 -5 92 -3 93 2 0
36 3 74 5 39 2 84 8 100 12 l30 8 0 89 c0 80 -8 108 -27 90z m-328 -61 c0 -8
-4 -12 -10 -9 -5 3 -10 10 -10 16 0 5 5 9 10 9 6 0 10 -7 10 -16z m151 3 c-1
-12 -15 -9 -19 4 -3 6 1 10 8 8 6 -3 11 -8 11 -12z m-50 -27 c4 -8 2 -26 -3
-39 -5 -13 -5 -28 0 -35 5 -6 12 -24 16 -40 6 -25 5 -28 -7 -17 -26 21 -40 67
-28 90 9 16 9 19 -2 16 -8 -4 -13 4 -15 20 -1 20 2 25 16 23 9 -2 20 -10 23
-18z m89 -35 c21 7 32 -5 21 -24 -14 -21 -51 8 -50 39 2 24 2 24 6 2 3 -17 9
-21 23 -17z m-159 2 c-5 -5 -7 -16 -4 -23 4 -11 9 -12 19 -3 18 15 18 -1 0
-35 l-13 -26 -17 24 c-9 14 -16 29 -16 35 0 5 -7 11 -15 15 -22 8 -18 24 8 28
31 5 51 -2 38 -15z m249 3 c0 -5 -2 -10 -4 -10 -3 0 -8 5 -11 10 -3 6 -1 10 4
10 6 0 11 -4 11 -10z m-140 -20 c0 -5 -5 -10 -11 -10 -5 0 -7 5 -4 10 3 6 8
10 11 10 2 0 4 -4 4 -10z m-110 -89 c0 -5 9 -11 20 -14 20 -5 28 -27 10 -27
-5 0 -10 5 -10 10 0 6 -9 10 -20 10 -11 0 -20 7 -20 15 0 8 5 15 10 15 6 0 10
-4 10 -9z m10 -101 c0 -5 -5 -10 -11 -10 -5 0 -7 5 -4 10 3 6 8 10 11 10 2 0
4 -4 4 -10z m50 0 c0 -5 -4 -10 -10 -10 -5 0 -10 5 -10 10 0 6 5 10 10 10 6 0
10 -4 10 -10z m-10 -60 c0 -5 -2 -10 -4 -10 -3 0 -8 5 -11 10 -3 6 -1 10 4 10
6 0 11 -4 11 -10z m-1 -19 c11 -7 9 -10 -9 -16 -16 -5 -19 -10 -11 -18 6 -6
11 -14 11 -17 0 -8 -47 -7 -55 2 -10 9 5 49 15 43 5 -3 11 -1 15 5 8 12 16 12
34 1z m-19 -91 c0 -5 -5 -10 -11 -10 -5 0 -7 5 -4 10 3 6 8 10 11 10 2 0 4 -4
4 -10z m33 -29 c-3 -14 -11 -20 -20 -17 -11 5 -13 0 -8 -17 7 -21 6 -21 -11
-4 -18 17 -18 18 10 42 33 29 38 28 29 -4z m-33 -261 c-8 -5 -19 -10 -25 -10
-5 0 -3 5 5 10 8 5 20 10 25 10 6 0 3 -5 -5 -10z m77 -507 c-9 -9 -19 -14 -22
-11 -3 3 2 13 11 22 9 9 19 14 22 11 3 -3 -2 -13 -11 -22z m-42 -13 c3 -5 -3
-10 -15 -10 -12 0 -18 5 -15 10 3 6 10 10 15 10 5 0 12 -4 15 -10z"/>
<path d="M7314 2038 c-10 -16 -6 -255 7 -468 12 -206 30 -634 33 -800 3 -191
-9 -170 99 -170 106 1 322 16 336 24 5 3 -7 47 -27 96 l-36 90 -81 0 -82 0 -7
38 c-3 20 -6 88 -6 150 0 62 -4 154 -9 205 -6 51 -12 218 -15 372 -3 154 -9
324 -12 378 l-7 97 -93 0 c-62 0 -95 -4 -100 -12z m91 -278 c-3 -5 -11 -10
-16 -10 -6 0 -7 5 -4 10 3 6 11 10 16 10 6 0 7 -4 4 -10z m35 0 c0 -5 -4 -10
-10 -10 -5 0 -10 5 -10 10 0 6 5 10 10 10 6 0 10 -4 10 -10z m-31 -29 c8 -5 9
-11 3 -15 -5 -3 -15 1 -22 9 -14 16 -3 20 19 6z m-22 -83 c-3 -8 -6 -5 -6 6
-1 11 2 17 5 13 3 -3 4 -12 1 -19z m43 8 c0 -11 -19 -15 -25 -6 -3 5 1 10 9
10 9 0 16 -2 16 -4z m10 -40 c0 -2 -9 -6 -20 -9 -11 -3 -18 -1 -14 4 5 9 34
13 34 5z m-35 -164 c-8 -8 -25 10 -19 20 4 6 9 5 15 -3 4 -7 6 -15 4 -17z
m185 -720 c0 -4 -9 -13 -21 -20 -19 -12 -19 -11 -9 8 10 19 30 28 30 12z"/>
<path d="M6587 2023 c-49 -3 -79 -8 -82 -16 -2 -7 -9 -165 -15 -352 -9 -298
-26 -618 -35 -664 -2 -9 -4 -27 -4 -40 -2 -40 -13 -16 -26 56 -7 37 -22 120
-33 183 -12 63 -33 203 -48 310 -41 310 -53 402 -62 455 l-7 50 -104 0 c-111
0 -119 -3 -102 -48 6 -14 19 -95 31 -179 11 -84 25 -175 30 -203 5 -27 14 -86
19 -130 6 -44 19 -129 30 -190 10 -60 27 -166 36 -235 9 -69 24 -170 35 -225
10 -55 21 -118 25 -140 3 -22 11 -52 17 -67 10 -28 11 -28 107 -27 53 0 116 4
141 7 44 7 45 8 48 47 1 22 11 132 22 245 10 113 22 250 25 305 3 55 13 165
20 245 8 80 17 190 20 245 4 55 13 158 20 229 8 71 12 133 9 138 -3 4 -13 7
-22 6 -9 -1 -52 -4 -95 -5z m23 -183 c0 -5 -4 -10 -10 -10 -5 0 -10 5 -10 10
0 6 5 10 10 10 6 0 10 -4 10 -10z m-350 -147 c0 -9 -8 -13 -22 -11 -30 4 -33
23 -3 24 16 1 25 -3 25 -13z m-50 -27 c0 -2 -7 -7 -16 -10 -8 -3 -12 -2 -9 4
6 10 25 14 25 6z m7 -32 c-3 -3 -12 -4 -19 -1 -8 3 -5 6 6 6 11 1 17 -2 13 -5z
m23 -34 c0 -5 -4 -10 -10 -10 -5 0 -10 5 -10 10 0 6 5 10 10 10 6 0 10 -4 10
-10z m14 -122 c-3 -4 0 -9 6 -13 15 -9 12 -25 -5 -25 -21 0 -19 -20 3 -20 19
-1 66 -67 52 -75 -4 -3 -7 -21 -6 -40 1 -20 -3 -34 -9 -31 -5 2 -9 21 -8 42 2
33 -1 41 -22 50 -19 10 -25 9 -30 -4 -5 -14 -7 -14 -15 -2 -5 8 -4 22 2 33 7
13 7 17 0 13 -13 -8 -44 52 -35 67 3 5 1 7 -5 3 -5 -3 -12 0 -15 6 -2 8 12 17
37 23 34 8 42 7 47 -5 4 -8 5 -18 3 -22z m46 -49 c0 -6 -4 -7 -10 -4 -5 3 -10
11 -10 16 0 6 5 7 10 4 6 -3 10 -11 10 -16z m-35 -129 c3 -5 1 -10 -4 -10 -6
0 -11 5 -11 10 0 6 2 10 4 10 3 0 8 -4 11 -10z m25 -94 c0 -3 -4 -8 -10 -11
-5 -3 -10 -1 -10 4 0 6 5 11 10 11 6 0 10 -2 10 -4z m90 -254 c0 -27 -37 -59
-51 -45 -8 8 -5 14 10 22 12 7 21 18 21 26 0 8 5 15 10 15 6 0 10 -8 10 -18z
m-64 -35 c1 -15 -1 -27 -6 -27 -5 0 -15 -3 -24 -6 -11 -4 -16 -1 -16 10 0 9 5
16 10 16 6 0 10 9 10 21 0 30 22 18 26 -14z m14 -47 c0 -5 -5 -10 -11 -10 -5
0 -7 5 -4 10 3 6 8 10 11 10 2 0 4 -4 4 -10z m220 -195 c0 -8 -4 -15 -9 -15
-5 0 -11 7 -15 15 -3 9 0 15 9 15 8 0 15 -7 15 -15z"/>
<path d="M5920 2000 c-41 -4 -133 -6 -204 -4 l-129 4 8 -58 c4 -31 9 -145 11
-252 3 -107 5 -202 6 -210 4 -47 -3 -69 -24 -76 -44 -13 -45 -19 -26 -111 10
-48 18 -89 18 -89 0 -1 8 -4 19 -7 21 -5 27 -61 40 -418 4 -119 11 -221 15
-228 8 -12 324 -7 386 7 l35 8 0 99 0 100 -103 0 c-85 0 -105 3 -112 16 -5 9
-15 102 -21 207 -10 148 -10 194 0 205 8 10 37 16 86 19 40 2 77 6 80 10 4 4
3 49 -1 100 l-9 93 -85 0 -85 0 -7 154 c-3 84 -9 168 -12 186 -8 42 2 49 84
52 36 2 79 7 95 11 30 8 30 9 31 87 2 79 -2 106 -15 104 -3 -1 -40 -5 -81 -9z
m-266 -56 c3 -8 2 -12 -4 -9 -6 3 -10 10 -10 16 0 14 7 11 14 -7z m156 -5 c0
-6 -4 -7 -10 -4 -5 3 -10 11 -10 16 0 6 5 7 10 4 6 -3 10 -11 10 -16z m-53
-19 c7 -10 8 -21 2 -33 -6 -10 -8 -25 -5 -35 2 -9 7 -30 10 -47 l7 -30 -21 30
c-15 21 -20 40 -16 65 l4 35 -19 -40 c-10 -22 -21 -44 -23 -50 -3 -5 -14 1
-25 14 -12 12 -19 27 -16 31 3 4 -5 10 -18 14 -18 5 -19 8 -7 15 8 5 17 8 21
5 4 -2 9 1 11 8 2 6 10 8 16 4 7 -4 10 -16 7 -26 -3 -10 -1 -21 4 -24 14 -9
29 23 27 56 -2 31 20 35 41 8z m104 -63 c-8 -8 -17 -5 -34 12 -17 18 -18 22
-5 18 10 -3 20 -1 24 5 4 7 10 4 16 -7 7 -11 6 -21 -1 -28z m74 33 c3 -5 1
-10 -4 -10 -6 0 -11 5 -11 10 0 6 2 10 4 10 3 0 8 -4 11 -10z m-218 -104 c-3
-7 0 -19 6 -25 6 -6 8 -13 5 -16 -7 -7 -68 25 -68 36 0 13 14 11 28 -3 9 -9
13 -7 18 5 3 9 8 17 11 17 3 0 3 -6 0 -14z m37 -108 c-3 -4 -9 -8 -15 -8 -5 0
-9 4 -9 8 0 5 7 9 15 9 8 0 12 -4 9 -9z m-28 -63 c-3 -8 0 -15 7 -15 7 0 4 -5
-6 -11 -11 -7 -16 -17 -12 -28 4 -15 1 -18 -21 -15 -14 1 -28 5 -31 7 -9 9 17
47 33 47 8 0 17 7 20 15 4 8 8 15 11 15 3 0 3 -7 -1 -15z m4 -99 c0 -2 -7 -6
-15 -10 -8 -3 -15 -1 -15 4 0 6 7 10 15 10 8 0 15 -2 15 -4z m26 -22 c-3 -9
-6 -20 -6 -26 0 -6 -7 -8 -15 -5 -8 4 -17 2 -20 -3 -3 -4 1 -10 7 -13 7 -2 9
-8 5 -13 -5 -5 -15 0 -23 11 -12 16 -12 21 -2 24 7 2 19 12 26 23 16 22 36 24
28 2z m1 -86 c-3 -8 -6 -5 -6 6 -1 11 2 17 5 13 3 -3 4 -12 1 -19z m-62 -128
c3 -5 1 -10 -4 -10 -6 0 -11 5 -11 10 0 6 2 10 4 10 3 0 8 -4 11 -10z m13 -64
c-7 -8 -15 -12 -17 -11 -5 6 10 25 20 25 5 0 4 -6 -3 -14z m88 -504 c-8 -9
-19 -13 -22 -9 -10 9 16 38 28 31 6 -4 4 -13 -6 -22z m-52 -23 c-3 -5 -10 -7
-15 -3 -5 3 -7 10 -3 15 3 5 10 7 15 3 5 -3 7 -10 3 -15z"/>
<path d="M5085 1973 c-71 -2 -141 -5 -154 -8 l-23 -6 6 -122 c4 -67 9 -204 11
-304 l5 -183 -37 0 c-57 0 -62 -7 -52 -65 16 -96 33 -140 57 -143 12 -2 26
-11 31 -20 4 -9 11 -141 14 -293 3 -185 9 -283 17 -298 11 -21 16 -22 88 -16
116 9 125 12 119 38 -3 12 -8 121 -12 242 -3 121 -8 248 -11 283 -5 53 -3 62
11 62 45 0 66 -33 80 -128 4 -23 8 -52 10 -65 2 -12 11 -69 19 -127 31 -213
38 -236 84 -268 24 -18 38 -19 127 -14 92 6 100 9 103 28 2 13 -7 32 -23 48
-53 53 -79 151 -94 356 -9 120 -34 205 -67 226 -27 18 -31 34 -10 34 8 0 30
15 49 33 54 51 62 94 48 272 -6 83 -11 180 -11 216 0 74 -19 130 -58 171 -44
47 -103 56 -327 51z m285 -163 c0 -5 -4 -10 -10 -10 -5 0 -10 5 -10 10 0 6 5
10 10 10 6 0 10 -4 10 -10z m-40 -34 c0 -3 -4 -8 -10 -11 -5 -3 -10 -1 -10 4
0 6 5 11 10 11 6 0 10 -2 10 -4z m-87 -18 c25 -19 38 -107 36 -238 -3 -147
-10 -160 -84 -160 -29 0 -56 4 -59 9 -3 5 -9 93 -12 197 -4 149 -3 189 8 195
20 13 92 11 111 -3z m-233 -78 c0 -5 -5 -10 -11 -10 -5 0 -7 5 -4 10 3 6 8 10
11 10 2 0 4 -4 4 -10z m380 -117 c0 5 5 5 11 1 8 -4 7 -9 -2 -15 -21 -13 -25
-11 -26 13 -2 18 0 20 7 8 5 -8 10 -11 10 -7z m-30 -10 c0 -7 -7 -13 -15 -13
-8 0 -15 6 -15 13 0 8 7 14 15 14 8 0 15 -6 15 -14z m40 -125 c0 -12 -3 -18
-7 -15 -3 4 -11 -1 -18 -9 -10 -14 -12 -12 -12 15 0 23 5 31 19 31 12 0 18 -7
18 -22z m-7 -43 c-3 -9 -8 -14 -10 -11 -3 3 -2 9 2 15 9 16 15 13 8 -4z m-306
-47 c-3 -8 -6 -5 -6 6 -1 11 2 17 5 13 3 -3 4 -12 1 -19z m-62 -567 c-3 -6
-11 -8 -17 -5 -6 4 -5 9 3 15 16 10 23 4 14 -10z m3 -40 c12 -10 22 -23 22
-30 0 -6 5 -11 10 -11 21 0 9 -26 -12 -27 -13 -1 -28 -9 -34 -18 -9 -13 -11
-7 -10 30 1 26 -2 49 -6 51 -11 7 -10 24 0 24 5 0 19 -8 30 -19z m29 -108 c-3
-3 -11 -2 -17 2 -9 6 -9 10 1 16 14 8 27 -7 16 -18z"/>
<path d="M4062 1942 c-56 -20 -122 -76 -150 -127 -19 -34 -20 -197 -2 -525 5
-102 10 -241 10 -310 0 -184 16 -344 39 -389 39 -76 157 -128 271 -118 97 8
145 25 195 69 62 54 69 88 61 273 -4 83 -9 247 -12 365 -2 118 -7 224 -9 235
-3 11 -10 99 -14 195 -6 115 -14 187 -23 210 -46 108 -231 170 -366 122z m185
-88 c1 -24 0 -25 -15 -10 -15 15 -15 18 -2 26 8 5 15 10 15 10 0 0 1 -12 2
-26z m-151 -9 c-1 -20 -3 -22 -15 -11 -7 8 -10 19 -7 25 12 19 24 12 22 -14z
m184 15 c0 -5 -4 -10 -10 -10 -5 0 -10 5 -10 10 0 6 5 10 10 10 6 0 10 -4 10
-10z m-110 -10 c0 -5 -4 -10 -10 -10 -5 0 -10 5 -10 10 0 6 5 10 10 10 6 0 10
-4 10 -10z m40 0 c0 -5 -5 -10 -11 -10 -5 0 -7 5 -4 10 3 6 8 10 11 10 2 0 4
-4 4 -10z m120 -35 c0 -8 -4 -15 -10 -15 -5 0 -10 7 -10 15 0 8 5 15 10 15 6
0 10 -7 10 -15z m-323 -30 c8 -9 12 -19 9 -23 -4 -3 -11 0 -15 7 -5 7 -14 10
-20 7 -12 -8 -15 6 -4 17 9 10 13 9 30 -8z m354 -8 c-10 -9 -11 -8 -5 6 3 10
9 15 12 12 3 -3 0 -11 -7 -18z m-281 3 c0 -5 -4 -10 -9 -10 -6 0 -13 5 -16 10
-3 6 1 10 9 10 9 0 16 -4 16 -10z m250 -12 c0 -13 -23 -5 -28 10 -2 7 2 10 12
6 9 -3 16 -11 16 -16z m-101 -12 c14 -17 21 -94 25 -306 2 -91 9 -194 16 -230
15 -83 17 -527 2 -542 -6 -6 -32 -13 -59 -15 -78 -8 -79 -4 -93 247 -7 118
-14 325 -16 460 -2 135 -6 269 -9 299 -5 47 -2 57 16 78 26 27 99 33 118 9z
m-219 -16 c0 -5 -4 -10 -10 -10 -5 0 -10 5 -10 10 0 6 5 10 10 10 6 0 10 -4
10 -10z m327 -80 c-1 -11 -7 -20 -14 -20 -16 0 -16 7 0 25 16 19 16 18 14 -5z
m-302 -19 c-3 -12 -10 -21 -15 -21 -5 0 -4 11 2 25 13 29 23 26 13 -4z m360
10 c-7 -7 -21 -11 -30 -7 -23 8 -10 24 20 22 21 -1 22 -3 10 -15z m10 -91 c-4
-6 -11 -8 -16 -5 -5 4 -9 1 -9 -4 0 -6 -8 -11 -17 -10 -12 0 -13 2 -5 6 7 3
18 17 23 32 9 23 11 24 20 8 6 -9 7 -22 4 -27z m-55 -64 c0 -3 -4 -8 -10 -11
-5 -3 -10 -1 -10 4 0 6 5 11 10 11 6 0 10 -2 10 -4z m45 -66 c3 -5 2 -10 -4
-10 -5 0 -13 5 -16 10 -3 6 -2 10 4 10 5 0 13 -4 16 -10z m-21 -136 c3 -8 10
-13 15 -10 5 3 4 -5 -2 -19 -7 -14 -15 -25 -18 -25 -7 0 -19 36 -19 58 0 17
17 15 24 -4z m-367 -74 c1 -11 -4 -20 -13 -20 -17 0 -19 26 -1 33 6 3 12 6 12
6 1 1 1 -8 2 -19z m393 -64 c0 -2 -7 -6 -15 -10 -8 -3 -15 -1 -15 4 0 6 7 10
15 10 8 0 15 -2 15 -4z m12 -258 c-17 -17 -25 -3 -17 29 l7 28 11 -23 c7 -16
7 -26 -1 -34z"/>
<path d="M3381 1923 c-80 -2 -150 -8 -156 -13 -13 -11 -9 -276 5 -325 5 -16
12 -140 15 -275 3 -135 10 -281 15 -325 5 -44 12 -174 15 -290 4 -115 11 -217
15 -225 7 -13 32 -14 182 -7 206 10 236 17 290 65 64 58 66 69 57 302 -4 113
-10 297 -14 410 -10 357 -24 539 -46 582 -30 60 -125 110 -198 106 -20 -1
-101 -4 -180 -5z m202 -66 c-3 -5 0 -7 8 -5 8 3 13 12 11 22 -6 36 8 13 23
-36 10 -36 12 -55 5 -62 -8 -8 -13 -7 -19 3 -6 9 -11 10 -15 2 -4 -6 -2 -11 4
-11 8 0 8 -6 0 -21 -15 -27 -8 -32 31 -24 31 7 32 8 14 21 -18 14 -18 14 1 29
15 12 16 16 5 24 -10 6 -10 10 -1 16 7 4 16 2 20 -5 4 -7 13 -9 20 -5 10 6 9
11 -4 20 -14 11 -14 13 -2 18 9 4 17 -2 21 -14 4 -12 12 -18 21 -15 11 4 12 2
4 -14 -14 -25 -13 -30 5 -24 18 7 20 -13 5 -51 -9 -23 -15 -26 -36 -21 -24 6
-25 5 -19 -24 4 -16 4 -30 0 -30 -10 0 -35 27 -35 38 0 5 -15 8 -34 6 -23 -3
-34 0 -33 8 1 34 -5 46 -23 51 -21 5 -29 40 -7 35 18 -3 57 12 57 23 0 5 -4 9
-10 9 -5 0 -10 -5 -10 -11 0 -8 -4 -8 -14 0 -11 9 -16 9 -21 1 -4 -7 -15 -10
-25 -7 -12 3 -22 -4 -29 -20 -6 -13 -16 -21 -22 -18 -7 5 -5 15 5 31 15 21 15
24 -3 33 -24 14 -35 1 -13 -15 16 -12 16 -13 0 -19 -10 -4 -24 1 -36 13 -18
18 -18 19 10 35 16 9 36 13 45 10 12 -5 14 -3 8 7 -6 10 0 12 34 6 22 -3 41
-3 40 1 -3 20 2 27 10 13 6 -8 7 -18 4 -23z m-243 -48 c0 -6 -4 -7 -10 -4 -5
3 -10 11 -10 16 0 6 5 7 10 4 6 -3 10 -11 10 -16z m-40 -19 c0 -5 -4 -10 -10
-10 -5 0 -10 5 -10 10 0 6 5 10 10 10 6 0 10 -4 10 -10z m125 0 c-3 -5 -10
-10 -16 -10 -5 0 -9 5 -9 10 0 6 7 10 16 10 8 0 12 -4 9 -10z m105 -26 c0 -8
-5 -12 -10 -9 -6 4 -8 11 -5 16 9 14 15 11 15 -7z m-170 -50 c0 -8 -4 -12 -10
-9 -5 3 -10 10 -10 16 0 5 5 9 10 9 6 0 10 -7 10 -16z m170 -7 c47 -24 49 -39
80 -587 20 -365 12 -423 -61 -447 -71 -23 -75 -17 -83 120 -3 67 -9 194 -11
282 -8 241 -12 332 -20 418 -4 44 -3 112 0 153 l7 74 32 0 c17 0 42 -6 56 -13z
m-187 -32 c3 -16 0 -24 -7 -22 -14 4 -21 47 -8 47 5 0 12 -11 15 -25z m394 1
c-3 -8 -1 -16 6 -19 14 -4 18 -57 4 -57 -4 0 -6 -8 -2 -19 3 -10 -1 -23 -9
-30 -18 -15 -9 -44 11 -37 9 4 7 -3 -6 -20 -26 -33 -27 -45 -3 -37 16 6 16 5
0 -13 -14 -16 -15 -23 -5 -33 7 -7 8 -14 2 -19 -13 -9 -18 -55 -5 -47 6 3 10
1 10 -4 0 -20 -18 -11 -39 18 -21 30 -26 52 -14 65 23 23 1 76 -31 76 -9 0
-16 5 -16 10 0 6 7 10 15 10 8 0 15 7 15 15 0 8 -5 15 -12 15 -6 0 -4 7 5 18
19 20 13 34 -9 25 -23 -8 -44 4 -37 22 4 12 8 13 13 5 5 -8 20 -10 43 -6 28 5
34 10 30 26 -3 10 1 26 9 34 17 19 32 20 25 2z m-117 0 c0 -3 -4 -8 -10 -11
-5 -3 -10 -1 -10 4 0 6 5 11 10 11 6 0 10 -2 10 -4z m48 -51 c-9 -9 -30 14
-23 25 6 9 10 8 17 -4 6 -10 8 -19 6 -21z m-323 -5 c-3 -5 -10 -10 -16 -10 -5
0 -9 5 -9 10 0 6 7 10 16 10 8 0 12 -4 9 -10z m40 -20 c-3 -5 -10 -10 -16 -10
-5 0 -9 5 -9 10 0 6 7 10 16 10 8 0 12 -4 9 -10z m-22 -12 c28 -13 38 -35 12
-24 -8 3 -15 1 -15 -4 0 -6 4 -10 9 -10 5 0 11 -7 15 -15 3 -9 0 -15 -9 -15
-7 0 -17 9 -20 20 -5 14 -12 19 -24 15 -14 -4 -17 0 -15 17 1 13 3 24 3 26 2
5 18 1 44 -10z m-20 -61 c4 3 7 2 7 -4 0 -6 -8 -13 -17 -17 -10 -3 -23 -9 -30
-12 -9 -4 -9 1 0 20 8 16 16 21 23 15 6 -5 14 -6 17 -2z m323 -64 c-10 -10
-19 5 -10 18 6 11 8 11 12 0 2 -7 1 -15 -2 -18z m81 -309 c-3 -3 -12 -4 -19
-1 -8 3 -5 6 6 6 11 1 17 -2 13 -5z m33 -94 c0 -5 -5 -10 -11 -10 -5 0 -7 5
-4 10 3 6 8 10 11 10 2 0 4 -4 4 -10z m-60 -144 c0 -3 -4 -8 -10 -11 -5 -3
-10 -1 -10 4 0 6 5 11 10 11 6 0 10 -2 10 -4z m-360 -156 c0 -5 -2 -10 -4 -10
-3 0 -8 5 -11 10 -3 6 -1 10 4 10 6 0 11 -4 11 -10z m50 -10 c0 -5 -4 -10 -10
-10 -5 0 -10 5 -10 10 0 6 5 10 10 10 6 0 10 -4 10 -10z m-23 -36 c-3 -3 -12
-4 -19 -1 -8 3 -5 6 6 6 11 1 17 -2 13 -5z m40 -10 c-3 -3 -12 -4 -19 -1 -8 3
-5 6 6 6 11 1 17 -2 13 -5z m13 -65 c0 -9 7 -19 15 -23 11 -4 14 -14 10 -33
l-6 -28 19 23 c24 26 52 32 31 5 -12 -14 -12 -16 1 -11 8 3 15 15 14 27 -1 25
11 28 20 5 4 -9 1 -23 -6 -32 -10 -12 -10 -16 0 -19 6 -3 12 -9 12 -15 0 -5
-9 -6 -21 -3 -14 5 -19 3 -15 -3 8 -13 -24 -21 -44 -11 -8 4 -23 10 -33 13
-10 3 -16 10 -12 15 3 5 0 13 -7 17 -8 5 -6 10 8 15 17 7 17 8 -4 8 -16 1 -22
-4 -20 -16 2 -13 -5 -17 -29 -19 -31 -2 -33 0 -33 33 0 30 2 34 15 23 12 -10
15 -9 15 8 0 11 -7 22 -15 26 -18 7 -9 34 13 38 24 5 72 -24 72 -43z m193 -27
c-6 -24 -23 -30 -23 -9 0 13 21 39 26 34 2 -2 1 -13 -3 -25z m-133 8 c0 -5 -4
-10 -10 -10 -5 0 -10 5 -10 10 0 6 5 10 10 10 6 0 10 -4 10 -10z m80 -25 c0
-7 6 -16 13 -18 7 -4 6 -6 -4 -6 -10 -1 -19 9 -21 24 -3 13 -1 22 3 19 5 -3 9
-11 9 -19z m50 -31 c0 -8 -5 -12 -10 -9 -6 4 -8 11 -5 16 9 14 15 11 15 -7z
m35 -4 c3 -5 1 -10 -4 -10 -6 0 -11 5 -11 10 0 6 2 10 4 10 3 0 8 -4 11 -10z
m-255 -40 c0 -5 -5 -10 -11 -10 -5 0 -7 5 -4 10 3 6 8 10 11 10 2 0 4 -4 4
-10z"/>
<path d="M3676 1771 c-3 -5 1 -11 9 -15 9 -3 15 0 15 9 0 16 -16 20 -24 6z"/>
<path d="M3686 1569 c-12 -7 -15 -14 -7 -18 6 -4 12 -17 14 -29 6 -38 17 -37
17 1 0 21 5 37 11 37 5 0 7 5 4 10 -8 13 -15 12 -39 -1z"/>
<path d="M3350 580 c0 -5 7 -10 15 -10 8 0 15 5 15 10 0 6 -7 10 -15 10 -8 0
-15 -4 -15 -10z"/>
<path d="M3015 1901 c-38 -4 -128 -6 -199 -5 l-128 2 6 -56 c3 -32 9 -163 12
-293 l6 -236 -31 -6 c-41 -8 -41 -27 -6 -183 3 -12 13 -24 23 -26 23 -6 29
-65 38 -403 4 -126 11 -236 16 -242 11 -14 307 -10 383 5 l40 7 0 100 0 100
-102 0 c-66 0 -107 5 -114 12 -14 14 -35 367 -25 407 5 21 13 24 87 29 44 3
83 8 86 11 3 3 2 47 -3 98 l-9 93 -85 0 -85 0 -6 115 c-3 63 -8 147 -10 185
-4 82 3 98 39 91 15 -3 59 0 97 7 l70 12 1 55 c1 79 -6 130 -20 129 -6 -1 -42
-5 -81 -8z m-261 -56 c-4 -8 -8 -15 -10 -15 -2 0 -4 7 -4 15 0 8 4 15 10 15 5
0 7 -7 4 -15z m151 6 c3 -5 1 -12 -5 -16 -5 -3 -10 1 -10 9 0 18 6 21 15 7z
m-54 -30 c11 -12 13 -23 8 -34 -6 -9 -6 -33 0 -56 5 -23 6 -41 2 -41 -12 0
-31 48 -31 75 0 14 -3 25 -7 25 -5 0 -9 11 -9 25 -2 30 15 32 37 6z m94 -31
c9 8 14 6 19 -6 10 -25 -8 -38 -32 -23 -14 9 -19 21 -17 38 5 38 8 39 12 8 4
-22 7 -26 18 -17z m82 3 c-3 -10 -5 -4 -5 12 0 17 2 24 5 18 2 -7 2 -21 0 -30z
m-243 -4 c-3 -6 -3 -17 1 -27 5 -14 7 -14 15 -2 7 10 9 2 7 -28 l-2 -43 -27
32 c-15 18 -25 36 -22 40 2 4 -5 10 -16 14 -29 9 -25 23 8 27 32 4 44 0 36
-13z m16 -119 c18 0 36 -17 28 -26 -7 -6 -68 26 -68 35 0 16 15 22 18 7 2 -9
12 -16 22 -16z m-10 -90 c0 -5 -5 -10 -11 -10 -5 0 -7 5 -4 10 3 6 8 10 11 10
2 0 4 -4 4 -10z m55 1 c3 -5 1 -12 -5 -16 -5 -3 -10 1 -10 9 0 18 6 21 15 7z
m-17 -80 c11 -6 10 -10 -3 -15 -9 -3 -15 -12 -12 -20 6 -16 -24 -27 -43 -16
-9 6 -9 13 -1 29 7 12 16 19 22 16 5 -4 9 -1 9 4 0 13 10 14 28 2z m-13 -91
c-3 -5 -11 -10 -16 -10 -6 0 -7 5 -4 10 3 6 11 10 16 10 6 0 7 -4 4 -10z m35
-26 c0 -19 -4 -25 -15 -21 -8 4 -17 2 -20 -3 -3 -4 1 -10 7 -13 7 -2 10 -8 5
-13 -4 -4 -15 -1 -24 8 -15 15 -14 19 13 42 16 14 30 26 32 26 1 0 2 -12 2
-26z m-30 -258 c0 -3 -4 -8 -10 -11 -5 -3 -10 -1 -10 4 0 6 5 11 10 11 6 0 10
-2 10 -4z m27 -382 c-3 -3 -12 -4 -19 -1 -8 3 -5 6 6 6 11 1 17 -2 13 -5z m48
-131 c-9 -8 -19 -13 -22 -9 -9 8 18 37 28 30 5 -3 2 -12 -6 -21z m-50 -13 c3
-5 -1 -10 -10 -10 -9 0 -13 5 -10 10 3 6 8 10 10 10 2 0 7 -4 10 -10z"/>
<path d="M2168 1871 c-80 -3 -149 -9 -153 -13 -4 -3 -3 -91 2 -195 4 -103 8
-237 8 -298 0 -110 0 -110 -25 -113 -68 -7 -71 -10 -64 -50 11 -62 33 -146 41
-153 5 -4 17 -9 28 -11 26 -4 35 -68 33 -228 -1 -171 13 -378 26 -389 13 -11
177 -3 194 8 5 4 6 61 1 141 -4 74 -11 210 -14 303 -6 159 -6 167 12 167 11 0
27 -6 37 -13 24 -18 30 -43 76 -351 24 -159 36 -195 76 -223 25 -17 41 -19
126 -15 86 4 98 7 104 24 4 14 -3 29 -25 52 -51 52 -67 116 -96 379 -15 131
-34 190 -66 208 -22 11 -25 29 -6 29 8 0 30 16 50 35 54 53 62 94 48 255 -6
74 -11 173 -12 220 0 104 -24 161 -84 202 -48 32 -104 37 -317 29z m152 -141
c0 -5 -2 -10 -4 -10 -3 0 -8 5 -11 10 -3 6 -1 10 4 10 6 0 11 -4 11 -10z m150
-20 c0 -5 -4 -10 -10 -10 -5 0 -10 5 -10 10 0 6 5 10 10 10 6 0 10 -4 10 -10z
m-40 -34 c0 -3 -4 -8 -10 -11 -5 -3 -10 -1 -10 4 0 6 5 11 10 11 6 0 10 -2 10
-4z m-87 -18 c24 -18 38 -117 36 -247 -3 -137 -10 -151 -85 -151 -37 0 -56 4
-60 14 -10 27 -19 377 -9 387 13 13 98 11 118 -3z m-228 -78 c-3 -5 -11 -10
-16 -10 -6 0 -7 5 -4 10 3 6 11 10 16 10 6 0 7 -4 4 -10z m355 -40 c0 -5 -4
-10 -10 -10 -5 0 -10 5 -10 10 0 6 5 10 10 10 6 0 10 -4 10 -10z m-3 -83 c-5
-15 -29 -16 -34 -2 -2 6 6 11 18 12 12 1 19 -3 16 -10z m25 -9 c-7 -7 -12 -8
-12 -2 0 6 3 14 7 17 3 4 9 5 12 2 2 -3 -1 -11 -7 -17z m8 -112 c0 -7 -7 -19
-15 -26 -8 -7 -12 -17 -8 -23 3 -6 1 -7 -6 -3 -6 4 -9 16 -6 27 4 11 2 19 -5
19 -6 0 -8 5 -5 10 9 15 45 12 45 -4z m-375 -666 c-3 -5 -10 -10 -16 -10 -5 0
-9 5 -9 10 0 6 7 10 16 10 8 0 12 -4 9 -10z m7 -42 c7 -13 11 -26 10 -30 -1
-5 5 -8 13 -8 8 0 15 -7 15 -16 0 -8 -4 -13 -9 -10 -14 9 -41 -5 -41 -21 0 -8
-5 -11 -10 -8 -6 4 -9 24 -7 46 2 21 0 39 -4 39 -5 0 -9 7 -9 15 0 23 28 18
42 -7z m25 -105 c-3 -3 -11 -2 -17 2 -9 6 -9 10 1 16 14 8 27 -7 16 -18z"/>
<path d="M1445 1850 c-58 -32 -82 -57 -112 -118 l-26 -53 7 -317 c4 -174 11
-375 16 -447 5 -71 12 -185 14 -252 6 -142 22 -185 87 -233 88 -63 255 -64
311 -1 30 33 48 40 48 17 0 -35 72 -59 109 -37 11 7 5 239 -18 696 l-6 120
-142 3 -143 3 0 -85 c0 -109 3 -116 51 -116 32 0 39 -4 43 -22 8 -34 13 -416
7 -426 -11 -18 -51 -23 -90 -12 -49 13 -49 13 -56 230 -2 85 -9 211 -15 280
-5 69 -13 220 -16 335 -7 247 -7 246 77 253 39 3 58 0 66 -9 6 -8 13 -61 16
-119 3 -58 6 -106 6 -107 3 -12 42 4 110 45 l80 47 1 91 c0 75 -4 101 -24 145
-20 45 -31 58 -72 78 -42 21 -66 25 -169 29 -108 3 -124 1 -160 -18z m-10
-618 c-8 -8 -25 10 -25 26 0 13 2 13 14 -4 8 -10 13 -21 11 -22z m-31 -17 c-5
-13 -9 -13 -23 -3 -9 7 -18 14 -20 15 -2 2 8 3 22 3 20 0 25 -4 21 -15z m36
-14 c0 -6 -4 -13 -10 -16 -5 -3 -10 1 -10 9 0 9 5 16 10 16 6 0 10 -4 10 -9z
m-30 -55 c0 -14 -5 -28 -10 -31 -13 -8 -24 20 -16 40 9 24 26 17 26 -9z m40
-16 c0 -5 -4 -10 -10 -10 -5 0 -10 5 -10 10 0 6 5 10 10 10 6 0 10 -4 10 -10z
m305 -50 c3 -5 1 -10 -4 -10 -6 0 -11 5 -11 10 0 6 2 10 4 10 3 0 8 -4 11 -10z
m-345 -150 c0 -5 -5 -10 -11 -10 -5 0 -7 5 -4 10 3 6 8 10 11 10 2 0 4 -4 4
-10z m405 -40 c3 -5 1 -10 -4 -10 -6 0 -11 5 -11 10 0 6 2 10 4 10 3 0 8 -4
11 -10z m-19 -326 c-3 -9 -10 -13 -15 -10 -5 4 -4 19 2 37 11 28 12 29 15 10
2 -13 1 -29 -2 -37z m-300 25 c1 -5 3 -10 4 -11 1 -2 3 -18 5 -36 2 -21 -1
-31 -9 -29 -6 2 -10 18 -10 36 1 17 -2 28 -7 25 -11 -6 -11 -1 -3 21 6 16 18
12 20 -6z m-36 -45 c0 -8 -4 -12 -10 -9 -5 3 -10 10 -10 16 0 5 5 9 10 9 6 0
10 -7 10 -16z m312 -46 c-6 -6 -7 0 -4 19 5 21 7 23 10 9 2 -10 0 -22 -6 -28z
m-245 -10 c-3 -8 -6 -5 -6 6 -1 11 2 17 5 13 3 -3 4 -12 1 -19z"/>
<path d="M951 1833 l-164 -4 7 -37 c10 -54 26 -491 19 -523 -4 -20 -13 -28
-35 -33 -30 -6 -30 -7 -23 -53 15 -105 26 -142 45 -148 13 -4 20 -19 24 -53 8
-69 20 -328 25 -546 l1 -59 207 6 c160 5 210 9 218 20 6 8 8 52 5 108 l-5 94
-107 -3 -106 -3 -6 28 c-15 78 -24 398 -12 411 3 2 41 6 85 9 l81 6 0 61 c0
34 -3 78 -7 99 l-6 38 -72 -6 c-100 -10 -105 -3 -105 128 0 56 -3 139 -6 183
l-7 81 95 8 c52 3 100 10 107 14 8 5 11 34 9 92 l-3 84 -50 0 c-27 1 -124 0
-214 -2z m-96 -53 c3 -5 1 -10 -4 -10 -6 0 -11 5 -11 10 0 6 2 10 4 10 3 0 8
-4 11 -10z m155 0 c0 -5 -2 -10 -4 -10 -3 0 -8 5 -11 10 -3 6 -1 10 4 10 6 0
11 -4 11 -10z m40 0 c0 -5 -5 -10 -11 -10 -5 0 -7 5 -4 10 3 6 8 10 11 10 2 0
4 -4 4 -10z m-99 -10 c6 0 7 -4 4 -10 -3 -5 -2 -10 4 -10 7 0 7 -8 1 -25 -5
-14 -8 -30 -6 -37 3 -7 7 -26 10 -43 l7 -30 -22 33 c-13 20 -19 42 -17 57 3
13 2 22 -2 20 -4 -3 -10 9 -12 26 -4 23 -1 29 9 24 8 -3 19 -5 24 -5z m84 -32
c-6 -17 -4 -20 9 -15 19 7 34 -19 20 -33 -15 -15 -54 25 -47 49 3 11 10 21 15
21 5 0 6 -10 3 -22z m-141 -7 c4 -5 2 -11 -4 -13 -6 -2 -6 -8 0 -18 9 -13 11
-13 20 0 12 18 12 3 1 -25 -5 -11 -4 -29 2 -40 7 -13 0 -10 -21 10 -18 17 -32
38 -32 47 0 10 -8 18 -17 18 -16 1 -16 2 1 15 23 17 42 19 50 6z m-4 -110 c0
-5 9 -11 20 -14 20 -5 29 -37 10 -37 -5 0 -10 4 -10 9 0 5 -9 11 -20 14 -20 5
-29 37 -10 37 6 0 10 -4 10 -9z m70 -107 c-15 -17 -30 -18 -30 -1 0 7 9 13 21
14 17 2 18 -1 9 -13z m-34 -59 c-3 -8 -1 -15 4 -15 6 0 10 -4 10 -10 0 -5 -7
-10 -16 -10 -10 0 -13 -6 -10 -18 6 -19 -12 -26 -42 -16 -17 5 3 44 23 44 7 0
17 9 20 20 3 11 9 20 12 20 3 0 3 -7 -1 -15z m4 -109 c0 -2 -7 -6 -15 -10 -8
-3 -15 -1 -15 4 0 6 7 10 15 10 8 0 15 -2 15 -4z m26 -22 c-3 -9 -6 -18 -6
-20 0 -2 -7 -4 -16 -4 -10 0 -14 -6 -10 -15 3 -8 1 -15 -5 -15 -21 0 -20 31 2
50 29 24 43 25 35 4z m44 -774 c-11 -20 -30 -28 -30 -12 0 11 22 32 32 32 5 0
4 -9 -2 -20z m30 -10 c0 -5 -4 -10 -10 -10 -5 0 -10 5 -10 10 0 6 5 10 10 10
6 0 10 -4 10 -10z m-80 -10 c0 -5 -7 -10 -15 -10 -8 0 -15 5 -15 10 0 6 7 10
15 10 8 0 15 -4 15 -10z"/>
<path d="M350 1821 c-89 -28 -171 -101 -190 -170 -10 -38 1 -233 16 -286 4
-11 40 -69 81 -130 71 -106 92 -134 186 -254 98 -124 100 -129 110 -274 l10
-131 -29 -24 c-23 -20 -35 -23 -72 -19 -24 3 -48 9 -53 14 -6 6 -15 57 -20
114 -6 57 -13 122 -17 143 l-7 40 -67 -3 c-36 -1 -79 -6 -95 -10 l-28 -8 3
-79 c9 -223 36 -301 125 -361 119 -80 348 -39 419 75 22 35 23 46 22 232 0
217 -2 227 -82 343 -32 47 -62 86 -197 258 -22 28 -55 74 -73 102 -32 49 -33
56 -30 130 3 69 6 81 27 98 32 27 77 24 106 -6 23 -22 25 -32 25 -107 0 -147
10 -154 129 -85 l74 42 -2 75 c-3 112 -18 157 -65 204 -68 68 -214 105 -306
77z m80 -66 c-10 -12 -10 -15 1 -15 8 0 15 -11 15 -25 2 -27 -7 -31 -37 -15
-25 14 -24 34 3 60 24 22 38 19 18 -5z m84 -38 c6 -4 -1 -5 -16 -1 -19 4 -28
2 -28 -7 0 -7 -3 -9 -6 -6 -4 4 2 19 12 34 17 26 19 26 22 8 3 -11 9 -24 16
-28z m16 27 c0 -8 -5 -12 -10 -9 -6 4 -8 11 -5 16 9 14 15 11 15 -7z m-150 -3
c0 -6 -4 -12 -10 -16 -5 -3 -7 -12 -3 -20 4 -11 1 -13 -11 -9 -10 4 -15 13
-12 21 3 8 6 19 6 24 0 5 7 9 15 9 8 0 15 -4 15 -9z m-50 -21 c0 -5 -4 -10
-10 -10 -5 0 -10 5 -10 10 0 6 5 10 10 10 6 0 10 -4 10 -10z m219 -27 c-6 -7
-15 -10 -20 -7 -13 8 -3 21 15 21 12 0 13 -4 5 -14z m58 -9 c-3 -3 -12 -4 -19
-1 -8 3 -5 6 6 6 11 1 17 -2 13 -5z m-87 -14 c0 -5 -4 -10 -10 -10 -5 0 -10 5
-10 10 0 6 5 10 10 10 6 0 10 -4 10 -10z m58 -2 c16 -16 15 -28 -3 -28 -8 0
-15 4 -15 10 0 5 -8 6 -17 3 -15 -6 -16 -5 -3 10 18 20 23 20 38 5z m-288 -9
c0 -5 4 -8 9 -4 5 3 13 0 17 -6 5 -9 0 -10 -15 -6 -15 4 -26 -1 -34 -14 -12
-20 -37 -26 -37 -9 0 6 5 10 10 10 6 0 10 6 10 14 0 13 13 23 33 25 4 1 7 -4
7 -10z m340 1 c0 -5 -4 -10 -10 -10 -5 0 -10 5 -10 10 0 6 5 10 10 10 6 0 10
-4 10 -10z m-370 -91 c0 -8 4 -8 14 0 10 9 17 7 27 -6 9 -10 9 -14 2 -10 -7 5
-21 -1 -33 -13 -22 -22 -46 -28 -33 -7 4 6 6 20 5 30 -2 9 2 17 7 17 6 0 11
-5 11 -11z m25 -88 c3 -5 -4 -13 -16 -16 -23 -8 -34 -1 -24 14 8 13 32 14 40
2z m265 -494 c0 -20 0 -20 -15 -1 -19 25 -19 35 0 28 8 -4 15 -16 15 -27z"/>
<path d="M9440 550 c-107 -4 -278 -11 -380 -14 -102 -3 -225 -8 -275 -11 -49
-3 -182 -7 -295 -10 -113 -3 -243 -8 -290 -10 -47 -2 -184 -6 -305 -10 -121
-3 -247 -8 -280 -10 -33 -2 -168 -7 -300 -10 -132 -4 -280 -8 -330 -10 -119
-5 -351 -14 -555 -20 -91 -3 -282 -10 -425 -15 -229 -9 -517 -18 -1045 -35
-350 -11 -486 -16 -710 -25 -129 -5 -318 -12 -420 -15 -102 -3 -237 -7 -300
-10 -63 -3 -257 -9 -430 -15 -173 -5 -369 -12 -435 -15 -66 -3 -208 -7 -315
-11 -107 -3 -224 -7 -260 -9 -36 -2 -177 -6 -315 -9 -137 -4 -286 -9 -330 -11
-73 -5 -389 -16 -860 -30 -99 -3 -220 -8 -270 -11 l-90 -5 0 -60 c0 -54 2 -59
27 -70 16 -6 46 -9 70 -5 24 3 120 6 213 7 94 0 226 4 295 10 69 5 296 14 505
21 209 6 412 13 450 14 39 1 167 5 285 8 118 3 262 8 320 11 86 5 383 15 875
30 263 8 500 16 685 25 118 5 355 12 525 16 171 3 416 11 545 18 129 6 260 11
290 10 30 -1 123 3 205 8 83 5 299 13 480 18 182 5 438 14 570 19 214 9 628
22 1130 37 94 3 206 7 250 9 220 10 701 26 1050 34 502 13 802 30 816 47 8 10
7 21 -3 42 -11 20 -12 33 -4 45 6 9 7 20 2 24 -11 11 -137 12 -366 3z m90 -60
c0 -5 -17 -10 -37 -10 -28 0 -34 3 -23 10 20 13 60 13 60 0z m-710 -15 c0 -8
-6 -15 -13 -15 -8 0 -14 7 -14 15 0 8 6 15 14 15 7 0 13 -7 13 -15z m357 -1
c-3 -3 -12 -4 -19 -1 -8 3 -5 6 6 6 11 1 17 -2 13 -5z m-1047 -24 c0 -11 -4
-20 -9 -20 -5 0 -11 9 -14 20 -3 13 0 20 9 20 8 0 14 -9 14 -20z m226 5 c4 -8
12 -15 19 -15 22 0 25 -28 4 -33 -15 -4 -19 -2 -15 9 4 9 -3 18 -20 24 -14 6
-22 14 -19 20 9 15 25 12 31 -5z m124 5 c12 -8 12 -10 -2 -15 -9 -4 -29 -5
-45 -3 l-28 4 25 11 c31 15 32 15 50 3z m1050 6 c0 -3 -4 -8 -10 -11 -5 -3
-10 -1 -10 4 0 6 5 11 10 11 6 0 10 -2 10 -4z m-2110 -42 c0 -8 -6 -14 -14
-14 -12 0 -14 10 -7 38 3 10 21 -11 21 -24z m230 6 c0 -5 7 -10 15 -10 8 0 15
-2 15 -4 0 -2 3 -11 6 -20 5 -12 0 -16 -21 -16 -23 0 -26 2 -15 15 10 12 8 16
-14 25 -31 11 -34 20 -6 20 11 0 20 -4 20 -10z m125 0 c4 -6 -11 -10 -37 -9
-33 0 -38 2 -23 9 28 12 53 12 60 0z m-425 -4 c0 -11 -19 -15 -25 -6 -3 5 1
10 9 10 9 0 16 -2 16 -4z m-685 -26 c0 -22 -21 -22 -22 1 -1 12 3 19 10 16 7
-2 12 -10 12 -17z m230 11 c7 -12 -12 -24 -25 -16 -11 7 -4 25 10 25 5 0 11
-4 15 -9z m126 -1 c6 0 7 -4 4 -10 -3 -5 -23 -10 -43 -10 -35 1 -36 1 -17 16
11 8 26 12 33 9 8 -3 18 -5 23 -5z m869 6 c0 -3 -4 -8 -10 -11 -5 -3 -10 -1
-10 4 0 6 5 11 10 11 6 0 10 -2 10 -4z m430 0 c0 -11 -19 -15 -25 -6 -3 5 1
10 9 10 9 0 16 -2 16 -4z m-550 -16 c0 -5 -5 -10 -11 -10 -5 0 -7 5 -4 10 3 6
8 10 11 10 2 0 4 -4 4 -10z m-1170 -4 c0 -11 -19 -15 -25 -6 -3 5 1 10 9 10 9
0 16 -2 16 -4z m-702 -23 c6 -19 -25 -16 -32 3 -4 11 -1 14 11 12 9 -2 18 -9
21 -15z m222 2 c0 -8 -4 -15 -9 -15 -5 0 -14 7 -21 15 -10 13 -9 15 9 15 12 0
21 -6 21 -15z m125 5 c4 -6 -9 -10 -32 -9 -30 0 -34 2 -18 9 27 12 43 12 50 0z
m685 -5 c0 -8 -2 -15 -4 -15 -2 0 -13 -3 -23 -7 -15 -6 -16 -4 -6 9 7 8 10 18
6 21 -3 4 1 7 10 7 10 0 17 -7 17 -15z m677 9 c-3 -3 -12 -4 -19 -1 -8 3 -5 6
6 6 11 1 17 -2 13 -5z m-1785 -16 c-9 -9 -15 -9 -24 0 -9 9 -7 12 12 12 19 0
21 -3 12 -12z m538 -8 c0 -5 -5 -10 -11 -10 -5 0 -7 5 -4 10 3 6 8 10 11 10 2
0 4 -4 4 -10z m500 6 c0 -11 -19 -15 -25 -6 -3 5 1 10 9 10 9 0 16 -2 16 -4z
m-1732 -18 c-6 -18 -28 -21 -28 -4 0 9 7 16 16 16 9 0 14 -5 12 -12z m222 2
c0 -5 8 -10 18 -10 11 0 18 -8 19 -20 1 -14 -4 -20 -19 -20 -14 0 -18 5 -14
15 4 11 -3 19 -19 25 -30 11 -32 20 -5 20 11 0 20 -4 20 -10z m130 0 c0 -5
-19 -10 -42 -9 -33 0 -38 2 -23 9 28 12 65 12 65 0z m680 -5 c0 -8 -9 -15 -20
-15 -13 0 -18 5 -14 15 4 8 12 15 20 15 8 0 14 -7 14 -15z m90 5 c0 -5 -4 -10
-10 -10 -5 0 -10 5 -10 10 0 6 5 10 10 10 6 0 10 -4 10 -10z m-1425 -20 c4 -6
-9 -10 -32 -9 -30 0 -34 2 -18 9 27 12 43 12 50 0z m765 6 c0 -3 -4 -8 -10
-11 -5 -3 -10 -1 -10 4 0 6 5 11 10 11 6 0 10 -2 10 -4z m487 -2 c-3 -3 -12
-4 -19 -1 -8 3 -5 6 6 6 11 1 17 -2 13 -5z m-1957 -18 c0 -24 -17 -28 -23 -6
-3 13 0 20 9 20 8 0 14 -6 14 -14z m1355 4 c-3 -5 -11 -10 -16 -10 -6 0 -7 5
-4 10 3 6 11 10 16 10 6 0 7 -4 4 -10z m-998 -6 c-3 -3 -12 -4 -19 -1 -8 3 -5
6 6 6 11 1 17 -2 13 -5z m-1050 -19 c8 -22 -6 -33 -17 -15 -13 20 -12 30 0 30
6 0 13 -7 17 -15z m363 -6 c0 -5 -19 -9 -42 -9 -41 1 -42 1 -19 14 25 14 61
11 61 -5z m1040 11 c0 -5 -4 -10 -10 -10 -5 0 -10 5 -10 10 0 6 5 10 10 10 6
0 10 -4 10 -10z m477 4 c-3 -3 -12 -4 -19 -1 -8 3 -5 6 6 6 11 1 17 -2 13 -5z
m-1647 -14 c0 -5 7 -10 15 -10 8 0 15 -2 15 -4 0 -2 3 -11 6 -20 4 -12 0 -16
-16 -16 -16 0 -20 4 -16 15 4 11 -3 19 -19 25 -30 11 -32 20 -5 20 11 0 20 -4
20 -10z m-940 -25 c0 -8 -6 -15 -13 -15 -8 0 -14 7 -14 15 0 8 6 15 14 15 7 0
13 -7 13 -15z m230 0 c0 -8 -4 -15 -9 -15 -5 0 -14 7 -21 15 -10 13 -9 15 9
15 12 0 21 -6 21 -15z m125 5 c4 -6 -11 -10 -37 -9 -33 0 -38 2 -23 9 28 12
53 12 60 0z m-425 -10 c0 -5 -7 -10 -15 -10 -8 0 -15 5 -15 10 0 6 7 10 15 10
8 0 15 -4 15 -10z m-682 -23 c2 -9 -3 -17 -10 -17 -8 0 -14 9 -15 21 -2 24 20
20 25 -4z m356 2 c-3 -5 -22 -9 -42 -9 -36 1 -36 1 -13 14 25 14 65 10 55 -5z
m656 1 c10 -18 8 -20 -17 -19 -15 0 -22 3 -15 6 6 2 12 11 12 19 0 20 7 17 20
-6z m640 10 c0 -5 -4 -10 -10 -10 -5 0 -10 5 -10 10 0 6 5 10 10 10 6 0 10 -4
10 -10z m-1420 -10 c0 -5 7 -10 15 -10 8 0 15 -9 15 -20 0 -14 -7 -20 -21 -20
-18 0 -19 3 -9 15 10 12 8 16 -14 25 -31 11 -34 20 -6 20 11 0 20 -4 20 -10z
m870 0 c0 -5 -5 -10 -11 -10 -5 0 -7 5 -4 10 3 6 8 10 11 10 2 0 4 -4 4 -10z
m-1170 -4 c0 -11 -19 -15 -25 -6 -3 5 1 10 9 10 9 0 16 -2 16 -4z m-705 -24
c0 -6 -3 -12 -7 -12 -5 0 -8 3 -7 6 0 4 -5 11 -13 16 -9 7 -8 8 7 6 11 -2 20
-9 20 -16z m225 2 c0 -17 -22 -14 -28 4 -2 7 3 12 12 12 9 0 16 -7 16 -16z
m120 6 c11 -7 4 -10 -25 -9 -31 0 -36 2 -20 9 26 11 28 11 45 0z m1367 4 c-3
-3 -12 -4 -19 -1 -8 3 -5 6 6 6 11 1 17 -2 13 -5z m-1777 -14 c0 -5 -7 -10
-15 -10 -8 0 -15 5 -15 10 0 6 7 10 15 10 8 0 15 -4 15 -10z m-710 -34 c-8 -8
-13 -7 -20 4 -12 20 -1 33 16 19 11 -9 12 -15 4 -23z m1735 24 c-3 -5 -10 -10
-16 -10 -5 0 -9 5 -9 10 0 6 7 10 16 10 8 0 12 -4 9 -10z m-1505 -9 c0 -5 9
-11 20 -14 26 -7 26 -37 0 -37 -13 0 -18 5 -14 15 4 10 -3 18 -20 25 -31 11
-34 20 -6 20 11 0 20 -4 20 -9z m125 -1 c4 -6 -11 -10 -37 -9 -33 0 -38 2 -23
9 28 12 53 12 60 0z m685 -5 c0 -9 -9 -15 -22 -14 -13 0 -17 3 -10 6 6 2 10 9
6 14 -3 5 2 9 10 9 9 0 16 -7 16 -15z m-1108 -7 c-9 -9 -15 -9 -24 0 -9 9 -7
12 12 12 19 0 21 -3 12 -12z m1031 -5 c-7 -2 -19 -2 -25 0 -7 3 -2 5 12 5 14
0 19 -2 13 -5z m-776 -29 c-3 -3 -12 -4 -19 -1 -8 3 -5 6 6 6 11 1 17 -2 13
-5z"/>
</g>
</svg>
